<?xml version="1.0" encoding="UTF-8"?>
<svg width="94px" height="46px" viewBox="0 0 94 46" version="1.1" xmlns="http://www.w3.org/2000/svg" xmlns:xlink="http://www.w3.org/1999/xlink">
    <!-- Generator: Sketch 52.5 (67469) - http://www.bohemiancoding.com/sketch -->
    <title>Group 45</title>
    <desc>Created with Sketch.</desc>
    <defs>
        <polygon id="path-1" points="0.000122071597 0.345461929 40.9433462 0.345461929 40.9433462 45.8071066 0.000122071597 45.8071066"></polygon>
    </defs>
    <g id="Page-1" stroke="none" stroke-width="1" fill="none" fill-rule="evenodd">
        <g id="404" transform="translate(-76.000000, -296.000000)">
            <g id="Group-45" transform="translate(76.000000, 296.000000)">
                <path d="M51.2983289,15.7542569 C49.882603,15.7542569 48.7856183,15.0848051 48.2888975,13.9157695 C48.254065,13.8346528 48.2922376,13.7396985 48.3743086,13.704866 L48.7865726,13.5278406 C48.8075675,13.5187746 48.8290396,13.5149574 48.8500345,13.5149574 C48.9125421,13.5149574 48.9717096,13.5507442 48.9979533,13.6113431 C49.3844508,14.4869269 50.2228162,14.9888964 51.2983289,14.9888964 C52.7259838,14.9888964 53.7618924,14.0527137 53.7618924,12.762003 C53.7618924,11.6387746 52.4167858,11.0237188 51.2448873,10.6138406 C49.8358416,10.1285716 48.2168467,9.36368832 48.2168467,7.7480335 C48.2168467,6.04171878 49.6053746,4.75482538 51.4457706,4.75482538 C52.8409787,4.75482538 53.9656386,5.44288629 54.455202,6.59378985 C54.4895574,6.67586091 54.4518619,6.77033807 54.370268,6.80517056 L53.9570497,6.98219594 C53.936532,6.99078477 53.9150599,6.99555635 53.8931107,6.99555635 C53.8315574,6.99555635 53.772867,6.95929239 53.745669,6.89917056 C53.3591716,6.02263249 52.5212832,5.52066294 51.4457706,5.52066294 C50.0181157,5.52066294 48.9822071,6.4578 48.9822071,7.7480335 C48.9822071,8.87126193 50.3273137,9.48584061 51.4992122,9.89619594 C52.9082579,10.381465 54.5272528,11.1463482 54.5272528,12.762003 C54.5272528,14.4678406 53.1387249,15.7542569 51.2983289,15.7542569" id="Fill-1" fill="#000000"></path>
                <path d="M57.0987492,15.5776609 C57.009998,15.5776609 56.9374701,15.5056102 56.9374701,15.4163817 L56.9374701,5.09355939 C56.9374701,5.00480812 57.009998,4.9322802 57.0987492,4.9322802 L57.5410741,4.9322802 C57.6303025,4.9322802 57.7028305,5.00480812 57.7028305,5.09355939 L57.7028305,15.4163817 C57.7028305,15.5056102 57.6303025,15.5776609 57.5410741,15.5776609 L57.0987492,15.5776609 Z" id="Fill-3" fill="#000000"></path>
                <path d="M68.0379635,15.5776609 C67.948735,15.5776609 67.8766843,15.5075188 67.8766843,15.4211533 L67.8766843,7.38868629 L64.8185827,12.9614071 C64.7904305,13.0119858 64.7360345,13.0439553 64.6759127,13.0439553 C64.616268,13.0439553 64.5613949,13.0119858 64.5332426,12.9614071 L61.4751411,7.38868629 L61.4751411,15.4211533 C61.4751411,15.5075188 61.4030904,15.5776609 61.3138619,15.5776609 L60.8715371,15.5776609 C60.7823086,15.5776609 60.7102579,15.5075188 60.7102579,15.4211533 L60.7102579,5.05824975 C60.7102579,4.98619898 60.7608365,4.92321421 60.831933,4.90603655 C60.8452934,4.90269645 60.8586538,4.90126497 60.8715371,4.90126497 C60.9302274,4.90126497 60.9851005,4.9322802 61.0137299,4.98429036 L64.6759127,11.6387269 L68.3380954,4.98429036 C68.3667249,4.9322802 68.421598,4.90126497 68.4802883,4.90126497 C68.4931716,4.90126497 68.506532,4.90269645 68.5194152,4.90603655 C68.591466,4.92321421 68.6420447,4.98619898 68.6420447,5.05824975 L68.6420447,15.4211533 C68.6420447,15.5075188 68.5695168,15.5776609 68.4802883,15.5776609 L68.0379635,15.5776609 Z" id="Fill-5" fill="#000000"></path>
                <path d="M72.1755858,11.3125898 C72.3635858,11.3235645 72.5501543,11.3321533 72.7071391,11.3321533 C75.7275452,11.3321533 77.1027127,9.86441726 77.1027127,8.49974721 C77.1027127,7.12887411 75.7275452,5.65350355 72.7071391,5.65350355 C72.5449056,5.65350355 72.3654944,5.65350355 72.1755858,5.66018376 L72.1755858,11.3125898 Z M71.5719817,15.5774223 C71.4827533,15.5774223 71.4102254,15.5053716 71.4102254,15.4166203 L71.4102254,5.09379797 C71.4102254,5.00981827 71.4755959,4.93967614 71.5595756,4.93299594 C71.9236467,4.90484365 72.3526112,4.88766599 72.7071391,4.88766599 C76.2528954,4.88766599 77.8680731,6.76050863 77.8680731,8.49974721 C77.8680731,10.2327827 76.2528954,12.0979909 72.7071391,12.0979909 C72.533931,12.0979909 72.3588142,12.0889249 72.1755858,12.0779503 L72.1755858,15.4166203 C72.1755858,15.5053716 72.103535,15.5774223 72.0143066,15.5774223 L71.5719817,15.5774223 Z" id="Fill-7" fill="#000000"></path>
                <path d="M80.2010386,15.5776609 C80.1118102,15.5776609 80.0392822,15.5056102 80.0392822,15.4163817 L80.0392822,5.09355939 C80.0392822,5.00480812 80.1118102,4.9322802 80.2010386,4.9322802 L80.6433635,4.9322802 C80.7321147,4.9322802 80.8051198,5.00480812 80.8051198,5.09355939 L80.8051198,14.8123005 L85.6277492,14.8123005 C85.7165005,14.8123005 85.7885513,14.8848284 85.7885513,14.9735797 L85.7885513,15.4163817 C85.7885513,15.5056102 85.7165005,15.5776609 85.6277492,15.5776609 L80.2010386,15.5776609 Z" id="Fill-9" fill="#000000"></path>
                <path d="M87.8826041,15.5776609 C87.7933756,15.5776609 87.7213249,15.5056102 87.7213249,15.4163817 L87.7213249,5.09355939 C87.7213249,5.00480812 87.7933756,4.9322802 87.8826041,4.9322802 L93.7220558,4.9322802 C93.8112843,4.9322802 93.883335,5.00480812 93.883335,5.09355939 L93.883335,5.53636142 C93.883335,5.62558985 93.8112843,5.69811777 93.7220558,5.69811777 L88.4866853,5.69811777 L88.4866853,9.26773198 L92.749132,9.26773198 C92.8378832,9.26773198 92.9104112,9.3402599 92.9104112,9.42901117 L92.9104112,9.87133604 C92.9104112,9.96104162 92.8378832,10.0330924 92.749132,10.0330924 L88.4866853,10.0330924 L88.4866853,14.8123005 L93.7220558,14.8123005 C93.8112843,14.8123005 93.883335,14.8848284 93.883335,14.9735797 L93.883335,15.4163817 C93.883335,15.5056102 93.8112843,15.5776609 93.7220558,15.5776609 L87.8826041,15.5776609 Z" id="Fill-11" fill="#000000"></path>
                <path d="M55.2553472,31.3396954 C55.2133574,31.3396954 55.1713675,31.3234721 55.139398,31.2910254 L50.1330629,26.1544264 L49.4593168,26.780934 L49.4593168,31.0314518 C49.4593168,31.1197259 49.3867888,31.1922538 49.2980376,31.1922538 L48.8552355,31.1922538 C48.7664843,31.1922538 48.6939563,31.1197259 48.6939563,31.0314518 L48.6939563,20.7086294 C48.6939563,20.619401 48.7664843,20.5473503 48.8552355,20.5473503 L49.2980376,20.5473503 C49.3867888,20.5473503 49.4593168,20.619401 49.4593168,20.7086294 L49.4593168,25.7350051 L55.1599157,20.4285381 C55.1899766,20.4003858 55.2291036,20.3851168 55.2701391,20.3851168 L55.2768193,20.3851168 C55.3197635,20.3870254 55.3603218,20.4061117 55.3894284,20.4376041 L55.6843117,20.7620711 C55.7439563,20.8279188 55.7396619,20.9290761 55.6747685,20.989198 L50.6794081,25.6247817 L55.6957635,30.7709239 C55.7258244,30.8019391 55.7425249,30.8444061 55.7415706,30.8883046 C55.7396619,30.932203 55.7210528,30.9732386 55.6881289,31.0028223 L55.3641391,31.2977056 C55.3331239,31.3258579 55.293997,31.3396954 55.2553472,31.3396954" id="Fill-13" fill="#000000"></path>
                <path d="M67.7348254,31.1924447 C67.645597,31.1924447 67.573069,31.1199168 67.573069,31.0311655 L67.573069,20.7083431 C67.573069,20.6195919 67.645597,20.547064 67.7348254,20.547064 L73.5742772,20.547064 C73.6635056,20.547064 73.7355563,20.6195919 73.7355563,20.7083431 L73.7355563,21.1511452 C73.7355563,21.2403736 73.6635056,21.3124244 73.5742772,21.3124244 L68.3384294,21.3124244 L68.3384294,24.8825157 L72.6008761,24.8825157 C72.6896274,24.8825157 72.7621553,24.9550437 72.7621553,25.0437949 L72.7621553,25.486597 C72.7621553,25.5758254 72.6896274,25.6478761 72.6008761,25.6478761 L68.3384294,25.6478761 L68.3384294,31.0311655 C68.3384294,31.1199168 68.2659015,31.1924447 68.1766731,31.1924447 L67.7348254,31.1924447 Z" id="Fill-15" fill="#000000"></path>
                <path d="M75.486533,31.1924447 C75.3973046,31.1924447 75.3252538,31.1199168 75.3252538,31.0311655 L75.3252538,20.7083431 C75.3252538,20.6195919 75.3973046,20.547064 75.486533,20.547064 L81.3255076,20.547064 C81.414736,20.547064 81.487264,20.6195919 81.487264,20.7083431 L81.487264,21.1511452 C81.487264,21.2403736 81.414736,21.3124244 81.3255076,21.3124244 L76.0901371,21.3124244 L76.0901371,24.8825157 L80.3525838,24.8825157 C80.4418122,24.8825157 80.5138629,24.9550437 80.5138629,25.0437949 L80.5138629,25.486597 C80.5138629,25.5758254 80.4418122,25.6478761 80.3525838,25.6478761 L76.0901371,25.6478761 L76.0901371,31.0311655 C76.0901371,31.1199168 76.0180863,31.1924447 75.9288579,31.1924447 L75.486533,31.1924447 Z" id="Fill-17" fill="#000000"></path>
                <path d="M58.0940995,31.1677279 C58.0697645,31.2321442 58.007734,31.2598193 57.9428406,31.2598193 C57.9247086,31.2598193 57.9060995,31.2569563 57.8884447,31.2507533 L57.4757036,31.1028345 C57.434668,31.0885198 57.4017442,31.0584589 57.3836122,31.0188548 C57.3654802,30.9797279 57.3635716,30.9348751 57.3788406,30.8943168 L61.331135,20.3949462 C61.3545157,20.3319614 61.4146376,20.2904487 61.4819168,20.2904487 C61.5491959,20.2904487 61.6093178,20.3319614 61.6331756,20.3949462 L65.5849929,30.8947939 C65.6002619,30.9353523 65.5983533,30.9802051 65.5802213,31.019332 C65.5620893,31.058936 65.5291655,31.0899513 65.4881299,31.104266 L65.0749117,31.2536162 C65.0572569,31.2598193 65.0391249,31.2660223 65.0209929,31.2660223 C64.9556223,31.2660223 64.894069,31.2321442 64.869734,31.1677279 L61.4814396,22.1461137 L58.0940995,31.1677279 Z" id="Fill-19" fill="#000000"></path>
                <path d="M82.0402416,31.1677279 C82.0154294,31.2321442 81.9543533,31.2598193 81.8889827,31.2598193 C81.8713279,31.2598193 81.8527188,31.2569563 81.8345868,31.2507533 L81.4223228,31.1028345 C81.3808102,31.0885198 81.3474091,31.0584589 81.3292772,31.0188548 C81.3116223,30.9797279 81.3097137,30.9348751 81.3249827,30.8943168 L85.2772772,20.3949462 C85.3006579,20.3319614 85.3607797,20.2904487 85.4280589,20.2904487 C85.4953381,20.2904487 85.5554599,20.3319614 85.5793178,20.3949462 L89.5316122,30.8947939 C89.5464041,30.9353523 89.5449726,30.9802051 89.5263635,31.019332 C89.5082315,31.058936 89.4753076,31.0899513 89.4342721,31.104266 L89.021531,31.2536162 C89.003399,31.2598193 88.985267,31.2660223 88.967135,31.2660223 C88.9012873,31.2660223 88.8402112,31.2321442 88.8158761,31.1677279 L85.4280589,22.1461137 L82.0402416,31.1677279 Z" id="Fill-21" fill="#000000"></path>
                <g id="Group-31" transform="translate(47.715736, 37.827270)" fill="#000000">
                    <path d="M7.51074315,7.83225178 C6.72772792,7.20240406 5.77436751,6.80254619 4.78712893,6.58973401 L5.12734213,6.17222132 C5.40838782,6.22327716 5.68084467,6.30868832 5.95330152,6.39362234 C6.01294619,6.41891168 6.08070254,6.43608934 6.14893604,6.46185584 C6.75349442,6.69136853 7.31510863,7.01488122 7.85095635,7.41521624 L7.51074315,7.83225178 Z M4.26798173,4.43632284 L4.25939289,3.09980508 L3.85953503,3.09121624 L3.85953503,4.43632284 L4.26798173,4.43632284 Z M4.66783959,2.59735838 L4.66783959,4.93829239 L3.46778883,4.93829239 L3.4592,2.59735838 L4.66783959,2.59735838 Z M3.37426599,2.12974416 L3.37426599,1.61870863 L4.76183959,1.62729746 L4.76183959,2.12974416 L3.37426599,2.12974416 Z M3.17815431,5.49131777 L4.92359594,5.48272893 L4.92359594,1.09097259 L3.17004264,1.09097259 L3.17815431,5.49131777 Z M7.74932183,5.48272893 L7.74932183,5.98517563 L0.403484264,5.98517563 L0.403484264,5.48272893 L1.11874315,5.48272893 L0.838174619,1.18449543 C1.35732183,1.02273909 1.82493604,0.690637563 2.19998173,0.316546193 L2.55737259,0.707815228 C2.22527107,1.03991675 1.80823553,1.25272893 1.38261117,1.44025178 L1.41648934,2.14644467 L2.35267208,2.1550335 L2.35267208,2.65700305 L1.45084467,2.65700305 L1.52718985,3.75494213 L2.32738274,3.75494213 L2.32738274,4.25738883 L1.57013401,4.25738883 L1.64647919,5.48272893 L2.6423066,5.48272893 L2.6423066,0.588525888 L5.45133198,0.588525888 L5.45133198,5.48272893 L6.4896264,5.49131777 L6.58314924,4.26550051 L5.80013401,4.26550051 L5.80013401,3.75494213 L6.6003269,3.75494213 L6.69384975,2.66559188 L5.80013401,2.65700305 L5.80013401,2.1550335 L6.71913909,2.1550335 L6.78737259,1.21026193 L5.6894335,1.21026193 L5.6894335,0.707815228 L7.34946396,0.716404061 L7.0087736,5.48272893 L7.74932183,5.48272893 Z M0.318550254,7.39803858 C1.30626599,7.19333807 2.14033706,6.7510132 2.93194112,6.15504365 L3.27215431,6.52150051 C2.49772792,7.15087107 1.61260102,7.61943959 0.650651777,7.87471878 L0.318550254,7.39803858 Z" id="Fill-23"></path>
                    <path d="M18.2286041,4.06161117 L15.9134365,4.0702 C16.1515381,4.64851472 16.5518731,5.55940812 17.0538426,5.93397665 C17.6073452,5.38095127 18.0410812,4.77639289 18.2286041,4.06161117 Z M16.5771624,1.89961117 L14.9600761,1.89961117 L14.9514873,3.5677533 L16.5771624,3.55916447 L16.5771624,1.89961117 Z M18.8751523,3.55916447 C18.7902183,4.21477868 18.4328274,5.03167208 18.0329695,5.58517462 C17.8540355,5.82327614 17.6665127,6.08714416 17.4537005,6.29995635 C18.1350812,6.83580406 18.8751523,7.22802741 19.6672335,7.49141827 L19.2754873,7.9342203 C18.4924721,7.64506294 17.7519239,7.25283959 17.0963096,6.68311371 L17.0538426,6.69170254 C16.4158832,7.27049442 15.6920355,7.71281929 14.9176091,8.01056548 L14.5091624,7.59352995 C15.2921777,7.30437259 16.0499036,6.89544873 16.6878629,6.31713401 C16.0666041,5.67010863 15.6409797,4.86180406 15.3518223,4.0702 L14.9600761,4.06161117 L14.9514873,5.42341827 C14.9428985,6.42783452 14.4919848,7.33013909 13.7600254,8.0282203 L13.2833452,7.67035228 C14.0324822,7.03239289 14.4237513,6.13867716 14.4237513,5.15955025 L14.4323401,1.39764162 L16.5771624,1.39764162 L16.5862284,0.240057868 L17.1048985,0.240057868 L17.1134873,1.39764162 L19.335132,1.39764162 C19.3604213,2.01031168 19.1309086,2.54663655 18.9009188,3.08248426 L18.3984721,2.92931675 C18.5521168,2.59769239 18.6966954,2.26559086 18.7649289,1.90772284 L17.1048985,1.89961117 L17.1048985,3.5677533 L18.8751523,3.55916447 Z M13.7853147,2.14630152 C13.4875685,1.62715431 13.0108883,1.19294112 12.4745635,0.971540102 L12.8152538,0.622738071 C13.3601675,0.818372589 13.8024924,1.26117462 14.1427056,1.72926599 L13.7853147,2.14630152 Z M11.9725939,7.59352995 C12.4917411,6.96368223 12.8238426,6.21502234 13.070533,5.47447411 C13.1473553,5.24448426 13.2322893,4.9810934 13.2833452,4.72581421 L13.3429898,4.40182437 L13.8282589,4.64851472 C13.555802,5.81516447 13.1726447,6.94698173 12.4406853,7.90893096 L11.9725939,7.59352995 Z M13.2833452,3.88267716 C12.985599,3.35541827 12.4492741,2.92072792 11.9129492,2.7250934 L12.2536396,2.38440305 C12.849132,2.55522538 13.3177005,3.00613909 13.6836802,3.51669746 L13.2833452,3.88267716 Z" id="Fill-25"></path>
                    <path d="M29.5934904,6.34251878 L30.3850944,6.34251878 L30.3850944,1.72077259 L29.6020792,1.72936142 L29.5934904,6.34251878 Z M29.0657543,1.21021421 L30.9128305,1.21021421 L30.9128305,7.4748132 L30.3765056,7.46574721 L30.3765056,6.87025482 C30.1126376,6.86166599 29.8659472,6.86166599 29.6020792,6.87025482 L29.5934904,7.46574721 L29.0657543,7.4748132 L29.0657543,1.21021421 Z M24.9292772,7.55974721 C25.7375817,7.13412284 26.4781299,6.42792995 26.657064,5.51703655 C26.8102315,5.06564569 26.8870538,4.56367614 26.9123431,4.05311777 L26.9719878,2.76765584 L26.9800995,2.50378782 L26.1632061,2.49519898 L26.1632061,1.95076244 L26.9800995,1.95076244 L26.9800995,0.23108731 L27.5078355,0.23108731 L27.5078355,1.9421736 L28.7083635,1.95076244 L28.6992975,2.99764569 L28.6573076,4.79366599 C28.6401299,5.55091472 28.5633076,6.1979401 28.5036629,6.92131066 C28.4869624,7.19329036 28.3676731,7.4490467 28.1295716,7.60269137 C27.8055817,7.8150264 27.354668,7.70432589 26.9719878,7.68714822 L26.7930538,7.12553401 C27.0740995,7.15082335 27.3804345,7.22764569 27.6867695,7.20235635 C27.8399371,7.14271168 27.9592264,6.98095533 27.9673381,6.83589949 L28.0785157,5.29563553 L28.1548609,3.27010254 L28.1376832,2.49519898 L27.5164244,2.50378782 L27.4481909,3.83171675 C27.4229015,4.25734112 27.3804345,4.67437665 27.312201,5.08282335 C27.2611452,5.40633604 27.1676223,5.72984873 27.048333,6.04477259 C26.8698761,6.50427513 26.6227086,6.92131066 26.2228508,7.30446802 C25.9756832,7.53445787 25.6951147,7.74679289 25.414069,7.93431574 L24.9292772,7.55974721 Z M25.3801909,5.12529036 L25.3801909,1.66971675 L24.6057645,1.66971675 L24.6138761,5.12529036 L25.3801909,5.12529036 Z M24.0861401,1.15915838 L25.9160386,1.15915838 L25.9160386,6.1039401 L25.3883025,6.11300609 L25.3801909,5.62773706 L24.6138761,5.63632589 L24.6138761,6.1039401 L24.0861401,6.11300609 L24.0861401,1.15915838 Z" id="Fill-27"></path>
                    <path d="M41.1111624,7.95993909 L40.5576599,7.95993909 L40.5576599,0.282477157 L41.1111624,0.282477157 L41.1111624,1.61851777 L42.5664924,1.62758376 L42.5664924,2.14625381 L41.1111624,2.14625381 C41.0853959,2.55517766 41.0939848,2.9722132 41.1025736,3.34678173 L42.4219137,3.34678173 L42.4133249,3.84875127 L41.1111624,3.85686294 L41.1025736,5.1766802 L42.9496497,5.1766802 L42.9496497,5.70393909 L41.1111624,5.71252792 L41.1111624,7.95993909 Z M37.3320761,7.52572589 C38.080736,7.23609137 38.9491624,6.57236548 39.1533858,5.76358376 L39.2130305,5.52548223 C38.8384619,5.69582741 38.2424924,5.95969543 37.8001675,6.14674112 C37.6384112,6.0193401 37.5024213,5.85758376 37.340665,5.72970558 C38.0296802,5.44054822 38.7105838,5.15950254 39.3065533,4.90422335 C39.3494975,4.54683249 39.3323198,4.21473096 39.3323198,3.87404061 L38.080736,3.88262944 L38.080736,3.36348223 L39.3323198,3.36348223 L39.3323198,2.15484264 L37.9876904,2.15484264 L37.9876904,1.63569543 L39.3576091,1.63569543 C39.3576091,1.23536041 39.3747868,0.725279188 39.3576091,0.282477157 L39.893934,0.282477157 L39.9025228,4.12979695 C39.8853452,4.23190863 39.9025228,4.34213198 39.8853452,4.44472081 C39.9111117,5.53407107 39.6472437,6.63201015 38.7024721,7.36396954 C38.4128376,7.58537056 38.1236802,7.78959391 37.8001675,7.95993909 L37.3320761,7.52572589 Z M36.2937817,4.95527919 L37.1450305,4.95527919 L37.1450305,1.6953401 L36.2937817,1.6953401 L36.2937817,4.95527919 Z M35.748868,1.20148223 L37.6808782,1.1928934 L37.6808782,5.48301523 L36.2937817,5.4911269 L36.2937817,6.00216244 L35.748868,5.9935736 L35.748868,1.20148223 Z" id="Fill-29"></path>
                </g>
                <polygon id="Fill-32" fill="#FFED45" points="23.5479066 40.1647685 30.9390741 40.1647685 27.2434904 27.2118548"></polygon>
                <polygon id="Fill-34" fill="#1DCEBD" points="20.4098335 3.2232934 11.4192345 33.4521665 13.4061178 40.1648162 20.4642294 40.1648162 22.1710213 40.1648162 26.7794071 24.650999"></polygon>
                <polygon id="Fill-36" fill="#BC884B" points="7.14657665 20.7392629 1.35102335 41.119131 7.20240406 41.119131 8.8548 41.119131 10.8979878 33.9216893"></polygon>
                <polygon id="Fill-38" fill="#269B8A" points="10.0749868 40.1647685 12.4001746 40.1647685 11.2378193 36.3040883"></polygon>
                <polygon id="Fill-40" fill="#F2C32F" points="39.5699919 41.1190832 31.3051492 12.0940782 27.6539411 24.9210223 32.2670985 41.1190832"></polygon>
                <g id="Group-44" transform="translate(0.000000, 0.131839)">
                    <mask id="mask-2" fill="white">
                        <use xlink:href="#path-1"></use>
                    </mask>
                    <g id="Clip-43"></g>
                    <path d="M32.3387675,40.0329299 L28.0243107,24.868869 L31.4378944,12.9012853 L39.1807269,40.0329299 L32.3387675,40.0329299 Z M30.717864,40.0329299 L23.6950619,40.0329299 L27.2183919,27.6115695 L27.2303208,27.6034579 L27.2422497,27.6368589 L30.7660569,40.0329299 L30.717864,40.0329299 Z M22.1218741,40.0329299 L21.245336,40.0329299 L20.520534,40.0329299 L19.5614477,40.0329299 L13.9009299,40.0329299 L12.0495594,33.4710619 L20.4694782,3.90877766 L26.4353766,24.8936812 L22.1218741,40.0329299 Z M10.1738538,40.0329299 L11.2465036,36.2967878 L12.3277421,40.0329299 L10.1738538,40.0329299 Z M8.57299086,40.0386558 L7.78711269,40.0329299 L7.0942802,40.0329299 L6.30029036,40.0329299 L1.7587066,40.0329299 L7.04322437,21.4676914 L10.4596711,33.4696305 L8.57299086,40.0386558 Z M40.8899046,40.3836406 L32.1650822,9.8427066 C32.0720365,9.51776244 31.7757218,9.29397563 31.4378944,9.29397563 C31.0995898,9.29397563 30.802798,9.51776244 30.7102294,9.8427066 L27.2303208,22.039803 L21.1971431,0.894574619 C21.1045746,0.569630457 20.8073056,0.345366497 20.4694782,0.345366497 C20.1316508,0.345366497 19.8348589,0.569630457 19.7422904,0.894574619 L11.2536609,30.645336 L7.77041218,18.4515797 C7.67784365,18.1271127 7.38105178,17.9061888 7.04322437,17.9061888 C6.70539695,17.9061888 6.40860508,18.1323614 6.31555939,18.4568284 L0.0290111675,40.4929096 C-0.0358822335,40.7209909 0.0099248731,40.970067 0.152594924,41.1594985 C0.295742132,41.3489299 0.519051777,41.464402 0.756676142,41.464402 L6.32605685,41.464402 L6.32605685,45.0507168 C6.32605685,45.4687066 6.6242802,45.8074883 7.04179289,45.8074883 C7.45978274,45.8074883 7.75752893,45.4687066 7.75752893,45.0507168 L7.75752893,41.464402 L8.9933665,41.464402 L9.17134619,41.464402 L13.3302497,41.464402 L13.3335898,41.464402 L19.6864629,41.464402 L19.6864629,45.0507168 C19.6864629,45.4687066 19.9846863,45.8074883 20.402199,45.8074883 C20.8201888,45.8074883 21.117935,45.4687066 21.117935,45.0507168 L21.117935,41.464402 L22.5145746,41.464402 L22.6925543,41.464402 L30.6610822,41.464402 L30.6610822,45.0507168 C30.6610822,45.4687066 30.9593056,45.8074883 31.3768183,45.8074883 C31.7948081,45.8074883 32.0925543,45.4687066 32.0925543,45.0507168 L32.0925543,41.464402 L40.1832345,41.464402 L40.1865746,41.464402 C40.6040873,41.464402 40.9433462,41.1222802 40.9433462,40.7042904 C40.9433462,40.6055188 40.9242599,40.4704832 40.8899046,40.3836406 Z" id="Fill-42" fill="#1A1A1A" mask="url(#mask-2)"></path>
                </g>
            </g>
        </g>
    </g>
</svg>