<?xml version="1.0" encoding="UTF-8"?>
<svg width="48px" height="100px" viewBox="0 0 48 100" version="1.1" xmlns="http://www.w3.org/2000/svg" xmlns:xlink="http://www.w3.org/1999/xlink">
    <!-- Generator: Sketch 52.5 (67469) - http://www.bohemiancoding.com/sketch -->
    <title>Group 48 Copy</title>
    <desc>Created with Sketch.</desc>
    <defs>
        <polygon id="path-1" points="0 0.05425 6.6124 0.05425 6.6124 11.57975 0 11.57975"></polygon>
        <polygon id="path-3" points="0.3956 0.23945 6.8525 0.23945 6.8525 11.39445 0.3956 11.39445"></polygon>
        <polygon id="path-5" points="0.2852 0.3394 8.4102 0.3394 8.4102 8.5 0.2852 8.5"></polygon>
        <polygon id="path-7" points="0.474927915 0.0715 43.3782 0.0715 43.3782 47.7096 0.474927915 47.7096"></polygon>
    </defs>
    <g id="Page-1" stroke="none" stroke-width="1" fill="none" fill-rule="evenodd">
        <g id="404" transform="translate(-796.000000, -723.000000)">
            <g id="Group-48-Copy" transform="translate(796.000000, 723.000000)">
                <g id="Group-3" transform="translate(0.000000, 56.428500)">
                    <mask id="mask-2" fill="white">
                        <use xlink:href="#path-1"></use>
                    </mask>
                    <g id="Clip-2"></g>
                    <path d="M3.2289,11.57975 C1.7454,11.57975 0.5959,10.87825 0.0754,9.65375 C0.0389,9.56825 0.0789,9.46875 0.1649,9.43225 L0.5969,9.24625 C0.6189,9.23725 0.6414,9.23325 0.6634,9.23325 C0.7289,9.23325 0.7909,9.27075 0.8184,9.33375 C1.2234,10.25175 2.1019,10.77775 3.2289,10.77775 C4.7249,10.77775 5.8104,9.79675 5.8104,8.44425 C5.8104,7.26725 4.4009,6.62275 3.1729,6.19325 C1.6964,5.68475 -0.0001,4.88325 -0.0001,3.19025 C-0.0001,1.40275 1.4549,0.05425 3.3834,0.05425 C4.8454,0.05425 6.0239,0.77425 6.5369,1.98075 C6.5729,2.06625 6.5334,2.16575 6.4479,2.20275 L6.0149,2.38775 C5.9934,2.39675 5.9709,2.40175 5.9479,2.40175 C5.8834,2.40175 5.8219,2.36425 5.7934,2.30075 C5.3884,1.38275 4.5104,0.85625 3.3834,0.85625 C1.8874,0.85625 0.8019,1.83825 0.8019,3.19025 C0.8019,4.36725 2.2114,5.01125 3.4394,5.44125 C4.9159,5.95025 6.6124,6.75125 6.6124,8.44425 C6.6124,10.23175 5.1574,11.57975 3.2289,11.57975" id="Fill-1" fill="#000000" mask="url(#mask-2)"></path>
                </g>
                <path d="M9.307,67.82295 C9.214,67.82295 9.138,67.74745 9.138,67.65445 L9.138,56.83745 C9.138,56.74395 9.214,56.66795 9.307,56.66795 L9.7705,56.66795 C9.864,56.66795 9.94,56.74395 9.94,56.83745 L9.94,67.65445 C9.94,67.74745 9.864,67.82295 9.7705,67.82295 L9.307,67.82295 Z" id="Fill-4" fill="#000000"></path>
                <path d="M20.7699,67.82295 C20.6764,67.82295 20.6009,67.74945 20.6009,67.65895 L20.6009,59.24245 L17.3964,65.08145 C17.3669,65.13495 17.3099,65.16845 17.2469,65.16845 C17.1844,65.16845 17.1269,65.13495 17.0974,65.08145 L13.8929,59.24245 L13.8929,67.65895 C13.8929,67.74945 13.8174,67.82295 13.7239,67.82295 L13.2604,67.82295 C13.1669,67.82295 13.0914,67.74945 13.0914,67.65895 L13.0914,56.79995 C13.0914,56.72495 13.1444,56.65845 13.2189,56.64045 C13.2329,56.63695 13.2469,56.63545 13.2604,56.63545 C13.3219,56.63545 13.3794,56.66795 13.4094,56.72245 L17.2469,63.69595 L21.0844,56.72245 C21.1144,56.66795 21.1719,56.63545 21.2334,56.63545 C21.2469,56.63545 21.2609,56.63695 21.2744,56.64045 C21.3499,56.65845 21.4029,56.72495 21.4029,56.79995 L21.4029,67.65895 C21.4029,67.74945 21.3269,67.82295 21.2334,67.82295 L20.7699,67.82295 Z" id="Fill-6" fill="#000000"></path>
                <path d="M25.1056,63.35395 C25.3026,63.36545 25.4981,63.37445 25.6626,63.37445 C28.8276,63.37445 30.2686,61.83595 30.2686,60.40645 C30.2686,58.96995 28.8276,57.42395 25.6626,57.42395 C25.4926,57.42395 25.3046,57.42395 25.1056,57.43095 L25.1056,63.35395 Z M24.4731,67.82295 C24.3796,67.82295 24.3036,67.74745 24.3036,67.65445 L24.3036,56.83745 C24.3036,56.74945 24.3721,56.67545 24.4601,56.66845 C24.8416,56.63945 25.2911,56.62195 25.6626,56.62195 C29.3781,56.62195 31.0706,58.58395 31.0706,60.40645 C31.0706,62.22245 29.3781,64.17695 25.6626,64.17695 C25.4811,64.17695 25.2976,64.16695 25.1056,64.15595 L25.1056,67.65445 C25.1056,67.74745 25.0301,67.82295 24.9366,67.82295 L24.4731,67.82295 Z" id="Fill-8" fill="#000000"></path>
                <path d="M33.51525,67.82295 C33.42175,67.82295 33.34575,67.74745 33.34575,67.65445 L33.34575,56.83745 C33.34575,56.74395 33.42175,56.66795 33.51525,56.66795 L33.97875,56.66795 C34.07175,56.66795 34.14825,56.74395 34.14825,56.83745 L34.14825,67.02095 L39.20175,67.02095 C39.29475,67.02095 39.37025,67.09695 39.37025,67.19045 L39.37025,67.65445 C39.37025,67.74745 39.29475,67.82295 39.20175,67.82295 L33.51525,67.82295 Z" id="Fill-10" fill="#000000"></path>
                <g id="Group-14" transform="translate(41.000000, 56.428500)">
                    <mask id="mask-4" fill="white">
                        <use xlink:href="#path-3"></use>
                    </mask>
                    <g id="Clip-13"></g>
                    <path d="M0.5646,11.39445 C0.4711,11.39445 0.3956,11.31895 0.3956,11.22595 L0.3956,0.40895 C0.3956,0.31545 0.4711,0.23945 0.5646,0.23945 L6.6836,0.23945 C6.7771,0.23945 6.8526,0.31545 6.8526,0.40895 L6.8526,0.87295 C6.8526,0.96645 6.7771,1.04195 6.6836,1.04195 L1.1976,1.04195 L1.1976,4.78295 L5.6641,4.78295 C5.7571,4.78295 5.8331,4.85845 5.8331,4.95195 L5.8331,5.41545 C5.8331,5.50895 5.7571,5.58445 5.6641,5.58445 L1.1976,5.58445 L1.1976,10.59245 L6.6836,10.59245 C6.7771,10.59245 6.8526,10.66845 6.8526,10.76195 L6.8526,11.22595 C6.8526,11.31895 6.7771,11.39445 6.6836,11.39445 L0.5646,11.39445 Z" id="Fill-12" fill="#000000" mask="url(#mask-4)"></path>
                </g>
                <path d="M9.40005,84.34005 C9.35605,84.34005 9.31205,84.32255 9.27855,84.28905 L4.03255,78.90605 L3.32655,79.56255 L3.32655,84.01655 C3.32655,84.10955 3.25055,84.18505 3.15755,84.18505 L2.69355,84.18505 C2.60055,84.18505 2.52505,84.10955 2.52505,84.01655 L2.52505,73.20005 C2.52505,73.10655 2.60055,73.03055 2.69355,73.03055 L3.15755,73.03055 C3.25055,73.03055 3.32655,73.10655 3.32655,73.20005 L3.32655,78.46655 L9.30005,72.90605 C9.33155,72.87655 9.37255,72.86105 9.41555,72.86105 L9.42255,72.86105 C9.46805,72.86305 9.51005,72.88255 9.54055,72.91605 L9.84955,73.25605 C9.91205,73.32505 9.90755,73.43105 9.83955,73.49355 L4.60505,78.35155 L9.86155,83.74405 C9.89305,83.77655 9.91055,83.82055 9.90955,83.86655 C9.90755,83.91255 9.88805,83.95605 9.85355,83.98655 L9.51405,84.29605 C9.48155,84.32555 9.44055,84.34005 9.40005,84.34005" id="Fill-15" fill="#000000"></path>
                <path d="M22.47695,84.18525 C22.38345,84.18525 22.30745,84.10975 22.30745,84.01675 L22.30745,73.19975 C22.30745,73.10625 22.38345,73.03025 22.47695,73.03025 L28.59595,73.03025 C28.68945,73.03025 28.76495,73.10625 28.76495,73.19975 L28.76495,73.66375 C28.76495,73.75675 28.68945,73.83225 28.59595,73.83225 L23.10945,73.83225 L23.10945,77.57375 L27.57595,77.57375 C27.66895,77.57375 27.74495,77.64925 27.74495,77.74275 L27.74495,78.20675 C27.74495,78.29975 27.66895,78.37525 27.57595,78.37525 L23.10945,78.37525 L23.10945,84.01675 C23.10945,84.10975 23.03395,84.18525 22.94045,84.18525 L22.47695,84.18525 Z" id="Fill-17" fill="#000000"></path>
                <path d="M30.6,84.18525 C30.5065,84.18525 30.4305,84.10975 30.4305,84.01675 L30.4305,73.19975 C30.4305,73.10625 30.5065,73.03025 30.6,73.03025 L36.7185,73.03025 C36.812,73.03025 36.888,73.10625 36.888,73.19975 L36.888,73.66375 C36.888,73.75675 36.812,73.83225 36.7185,73.83225 L31.2325,73.83225 L31.2325,77.57375 L35.699,77.57375 C35.7925,77.57375 35.868,77.64925 35.868,77.74275 L35.868,78.20675 C35.868,78.29975 35.7925,78.37525 35.699,78.37525 L31.2325,78.37525 L31.2325,84.01675 C31.2325,84.10975 31.1565,84.18525 31.0635,84.18525 L30.6,84.18525 Z" id="Fill-19" fill="#000000"></path>
                <path d="M12.37465,84.15935 C12.34915,84.22685 12.28415,84.25635 12.21615,84.25635 C12.19765,84.25635 12.17765,84.25285 12.15915,84.24635 L11.72665,84.09185 C11.68365,84.07685 11.64915,84.04485 11.63015,84.00385 C11.61115,83.96235 11.60915,83.91585 11.62515,83.87285 L15.76665,72.87085 C15.79115,72.80535 15.85415,72.76185 15.92465,72.76185 C15.99515,72.76185 16.05815,72.80535 16.08315,72.87085 L20.22415,83.87335 C20.24015,83.91585 20.23815,83.96335 20.21915,84.00435 C20.20015,84.04585 20.16565,84.07785 20.12265,84.09335 L19.68965,84.24935 C19.67115,84.25635 19.65215,84.26285 19.63315,84.26285 C19.56465,84.26285 19.50015,84.22685 19.47465,84.15935 L15.92415,74.70585 L12.37465,84.15935 Z" id="Fill-21" fill="#000000"></path>
                <path d="M37.46715,84.15935 C37.44165,84.22685 37.37715,84.25635 37.30865,84.25635 C37.29015,84.25635 37.27065,84.25285 37.25165,84.24635 L36.81965,84.09185 C36.77615,84.07685 36.74115,84.04485 36.72265,84.00385 C36.70365,83.96235 36.70165,83.91585 36.71765,83.87285 L40.85915,72.87085 C40.88365,72.80535 40.94665,72.76185 41.01715,72.76185 C41.08765,72.76185 41.15065,72.80535 41.17565,72.87085 L45.31715,83.87335 C45.33265,83.91585 45.33115,83.96335 45.31165,84.00435 C45.29265,84.04585 45.25815,84.07785 45.21515,84.09335 L44.78265,84.24935 C44.76365,84.25635 44.74465,84.26285 44.72565,84.26285 C44.65715,84.26285 44.59265,84.22685 44.56765,84.15935 L41.01715,74.70585 L37.46715,84.15935 Z" id="Fill-23" fill="#000000"></path>
                <g id="Group-34" transform="translate(1.500000, 90.928500)">
                    <path d="M7.672,8.29485 C6.8515,7.63485 5.8525,7.21585 4.818,6.99285 L5.1745,6.55585 C5.469,6.60935 5.7545,6.69835 6.0395,6.78735 C6.102,6.81435 6.1735,6.83235 6.245,6.85885 C6.878,7.09985 7.467,7.43885 8.0285,7.85785 L7.672,8.29485 Z M4.274,4.73635 L4.265,3.33585 L3.846,3.32685 L3.846,4.73635 L4.274,4.73635 Z M4.693,2.80985 L4.693,5.26285 L3.4355,5.26285 L3.4265,2.80985 L4.693,2.80985 Z M3.3375,2.31935 L3.3375,1.78435 L4.791,1.79335 L4.791,2.31935 L3.3375,2.31935 Z M3.132,5.84235 L4.9605,5.83335 L4.9605,1.23135 L3.1235,1.23135 L3.132,5.84235 Z M7.922,5.83335 L7.922,6.35935 L0.2245,6.35935 L0.2245,5.83335 L0.974,5.83335 L0.6795,1.32935 C1.224,1.15985 1.714,0.81185 2.1065,0.41935 L2.481,0.82985 C2.133,1.17785 1.696,1.40035 1.2505,1.59685 L1.286,2.33685 L2.267,2.34635 L2.267,2.87235 L1.3215,2.87235 L1.402,4.02285 L2.2405,4.02285 L2.2405,4.54885 L1.4465,4.54885 L1.5265,5.83335 L2.5705,5.83335 L2.5705,0.70485 L5.5135,0.70485 L5.5135,5.83335 L6.6015,5.84235 L6.7,4.55785 L5.8795,4.55785 L5.8795,4.02285 L6.7175,4.02285 L6.816,2.88085 L5.8795,2.87235 L5.8795,2.34635 L6.8425,2.34635 L6.914,1.35635 L5.7635,1.35635 L5.7635,0.82985 L7.5025,0.83835 L7.1455,5.83335 L7.922,5.83335 Z M0.1355,7.83985 C1.17,7.62585 2.044,7.16235 2.8735,6.53785 L3.2305,6.92135 C2.4185,7.58135 1.491,8.07185 0.4835,8.33935 L0.1355,7.83985 Z" id="Fill-25" fill="#000000"></path>
                    <g id="Group-29" transform="translate(12.000000, 0.000000)">
                        <mask id="mask-6" fill="white">
                            <use xlink:href="#path-5"></use>
                        </mask>
                        <g id="Clip-28"></g>
                        <path d="M6.9027,4.3439 L4.4767,4.3529 C4.7262,4.9589 5.1457,5.9134 5.6722,6.3059 C6.2517,5.7264 6.7062,5.0929 6.9027,4.3439 Z M5.1727,2.0784 L3.4777,2.0784 L3.4687,3.8264 L5.1727,3.8174 L5.1727,2.0784 Z M7.5807,3.8174 C7.4912,4.5044 7.1167,5.3604 6.6977,5.9404 C6.5102,6.1899 6.3142,6.4669 6.0912,6.6894 C6.8047,7.2514 7.5807,7.6619 8.4102,7.9379 L7.9997,8.4019 C7.1792,8.0989 6.4032,7.6884 5.7162,7.0909 L5.6722,7.0999 C5.0032,7.7064 4.2452,8.1699 3.4332,8.4819 L3.0052,8.0454 C3.8257,7.7419 4.6197,7.3139 5.2882,6.7074 C4.6372,6.0294 4.1917,5.1824 3.8882,4.3529 L3.4777,4.3439 L3.4687,5.7709 C3.4597,6.8234 2.9872,7.7689 2.2202,8.5004 L1.7207,8.1254 C2.5057,7.4569 2.9157,6.5204 2.9157,5.4944 L2.9247,1.5524 L5.1727,1.5524 L5.1817,0.3394 L5.7257,0.3394 L5.7347,1.5524 L8.0622,1.5524 C8.0892,2.1944 7.8482,2.7564 7.6072,3.3179 L7.0807,3.1574 C7.2417,2.8099 7.3932,2.4619 7.4647,2.0874 L5.7257,2.0784 L5.7257,3.8264 L7.5807,3.8174 Z M2.2467,2.3369 C1.9347,1.7929 1.4352,1.3379 0.8732,1.1059 L1.2302,0.7404 C1.8012,0.9459 2.2652,1.4094 2.6217,1.8999 L2.2467,2.3369 Z M0.3472,8.0454 C0.8912,7.3854 1.2392,6.6004 1.4977,5.8244 C1.5782,5.5834 1.6672,5.3069 1.7207,5.0399 L1.7832,4.7004 L2.2917,4.9589 C2.0062,6.1814 1.6047,7.3674 0.8382,8.3754 L0.3472,8.0454 Z M1.7207,4.1564 C1.4087,3.6034 0.8467,3.1489 0.2852,2.9434 L0.6417,2.5869 C1.2662,2.7649 1.7567,3.2379 2.1402,3.7729 L1.7207,4.1564 Z" id="Fill-27" fill="#000000" mask="url(#mask-6)"></path>
                    </g>
                    <path d="M30.81165,6.73405 L31.64115,6.73405 L31.64115,1.89105 L30.82065,1.90005 L30.81165,6.73405 Z M30.25865,1.35605 L32.19415,1.35605 L32.19415,7.92055 L31.63215,7.91105 L31.63215,7.28705 C31.35565,7.27805 31.09715,7.27805 30.82065,7.28705 L30.81165,7.91105 L30.25865,7.92055 L30.25865,1.35605 Z M25.92415,8.00955 C26.77115,7.56355 27.54715,6.82355 27.73465,5.86905 C27.89515,5.39655 27.97565,4.87005 28.00215,4.33505 L28.06465,2.98805 L28.07315,2.71205 L27.21715,2.70255 L27.21715,2.13205 L28.07315,2.13205 L28.07315,0.33005 L28.62615,0.33005 L28.62615,2.12305 L29.88415,2.13205 L29.87515,3.22905 L29.83065,5.11105 C29.81265,5.90455 29.73265,6.58255 29.67015,7.34055 C29.65215,7.62605 29.52715,7.89355 29.27765,8.05405 C28.93815,8.27705 28.46615,8.16105 28.06465,8.14305 L27.87715,7.55455 C28.17165,7.58105 28.49265,7.66155 28.81365,7.63505 C28.97415,7.57255 29.09915,7.40305 29.10815,7.25155 L29.22415,5.63705 L29.30415,3.51455 L29.28615,2.70255 L28.63515,2.71205 L28.56365,4.10305 C28.53715,4.54905 28.49265,4.98605 28.42115,5.41405 C28.36765,5.75305 28.26965,6.09205 28.14465,6.42205 C27.95765,6.90355 27.69865,7.34055 27.27965,7.74205 C27.02065,7.98305 26.72665,8.20555 26.43215,8.40205 L25.92415,8.00955 Z M26.39665,5.45855 L26.39665,1.83755 L25.58515,1.83755 L25.59365,5.45855 L26.39665,5.45855 Z M25.04065,1.30255 L26.95815,1.30255 L26.95815,6.48405 L26.40565,6.49355 L26.39665,5.98505 L25.59365,5.99405 L25.59365,6.48405 L25.04065,6.49355 L25.04065,1.30255 Z" id="Fill-30" fill="#000000"></path>
                    <path d="M42.88075,8.4286 L42.30075,8.4286 L42.30075,0.3841 L42.88075,0.3841 L42.88075,1.7841 L44.40575,1.7931 L44.40575,2.3371 L42.88075,2.3371 C42.85425,2.7651 42.86275,3.2021 42.87175,3.5946 L44.25425,3.5946 L44.24525,4.1211 L42.88075,4.1296 L42.87175,5.5121 L44.80725,5.5121 L44.80725,6.0651 L42.88075,6.0741 L42.88075,8.4286 Z M38.92075,7.9736 C39.70525,7.6706 40.61525,6.9751 40.82925,6.1276 L40.89175,5.8776 C40.49925,6.0561 39.87525,6.3331 39.41125,6.5291 C39.24175,6.3951 39.09925,6.2256 38.92975,6.0921 C39.65175,5.7886 40.36575,5.4941 40.98975,5.2266 C41.03475,4.8521 41.01675,4.5041 41.01675,4.1476 L39.70525,4.1566 L39.70525,3.6126 L41.01675,3.6126 L41.01675,2.3461 L39.60775,2.3461 L39.60775,1.8021 L41.04325,1.8021 C41.04325,1.3826 41.06125,0.8476 41.04325,0.3841 L41.60525,0.3841 L41.61425,4.4151 C41.59625,4.5221 41.61425,4.6381 41.59625,4.7451 C41.62325,5.8871 41.34675,7.0376 40.35675,7.8041 C40.05325,8.0361 39.75025,8.2506 39.41125,8.4286 L38.92075,7.9736 Z M37.83275,5.2806 L38.72475,5.2806 L38.72475,1.8646 L37.83275,1.8646 L37.83275,5.2806 Z M37.26175,1.3466 L39.28625,1.3381 L39.28625,5.8336 L37.83275,5.8421 L37.83275,6.3771 L37.26175,6.3681 L37.26175,1.3466 Z" id="Fill-32" fill="#000000"></path>
                </g>
                <g id="Group-47" transform="translate(2.000000, 0.428500)">
                    <mask id="mask-8" fill="white">
                        <use xlink:href="#path-7"></use>
                    </mask>
                    <g id="Clip-46"></g>
                    <path d="M34.3617,41.6586 L29.8407,25.7686 L33.4177,13.2281 L41.5312,41.6586 L34.3617,41.6586 Z M32.6632,41.6586 L25.3042,41.6586 L28.9962,28.6426 L29.0087,28.6346 L29.0212,28.6691 L32.7137,41.6586 L32.6632,41.6586 Z M23.6557,41.6586 L22.7372,41.6586 L21.9777,41.6586 L20.9727,41.6586 L15.0412,41.6586 L13.1012,34.7826 L21.9242,3.8051 L28.1757,25.7946 L23.6557,41.6586 Z M11.1357,41.6586 L12.2597,37.7436 L13.3927,41.6586 L11.1357,41.6586 Z M9.4662,41.6586 L8.6347,41.6586 L7.9087,41.6586 L7.0767,41.6586 L2.3177,41.6586 L7.8552,22.2046 L11.4352,34.7816 L9.4662,41.6586 Z M43.3222,42.0261 L34.1797,10.0231 C34.0822,9.6831 33.7717,9.4481 33.4177,9.4481 C33.0632,9.4481 32.7522,9.6831 32.6552,10.0231 L29.0087,22.8046 L22.6867,0.6466 C22.5897,0.3061 22.2782,0.0711 21.9242,0.0711 C21.5702,0.0711 21.2592,0.3061 21.1622,0.6466 L12.2672,31.8216 L8.6172,19.0446 C8.5202,18.7041 8.2092,18.4731 7.8552,18.4731 C7.5012,18.4731 7.1902,18.7096 7.0927,19.0501 L0.5052,42.1411 C0.4372,42.3801 0.4852,42.6406 0.6347,42.8391 C0.7847,43.0381 1.0187,43.1586 1.2677,43.1586 L7.1037,43.1586 L7.1037,46.9166 C7.1037,47.3546 7.4162,47.7096 7.8537,47.7096 C8.2917,47.7096 8.6037,47.3546 8.6037,46.9166 L8.6037,43.1586 L9.8987,43.1586 L10.0852,43.1586 L14.4432,43.1586 L14.4467,43.1586 L21.1037,43.1586 L21.1037,46.9166 C21.1037,47.3546 21.4162,47.7096 21.8537,47.7096 C22.2917,47.7096 22.6037,47.3546 22.6037,46.9166 L22.6037,43.1586 L24.0672,43.1586 L24.2537,43.1586 L32.6037,43.1586 L32.6037,46.9166 C32.6037,47.3546 32.9162,47.7096 33.3537,47.7096 C33.7917,47.7096 34.1037,47.3546 34.1037,46.9166 L34.1037,43.1586 L42.5817,43.1586 L42.5852,43.1586 C43.0227,43.1586 43.3782,42.8001 43.3782,42.3626 C43.3782,42.2586 43.3582,42.1171 43.3222,42.0261 Z" id="Fill-45" fill="#1A1A1A" mask="url(#mask-8)"></path>
                </g>
            </g>
        </g>
    </g>
</svg>