<?xml version="1.0" encoding="UTF-8"?>
<svg width="29px" height="38px" viewBox="0 0 29 38" version="1.1" xmlns="http://www.w3.org/2000/svg" xmlns:xlink="http://www.w3.org/1999/xlink">
    <!-- Generator: Sketch 52.5 (67469) - http://www.bohemiancoding.com/sketch -->
    <title>coffee (1)</title>
    <desc>Created with Sketch.</desc>
    <g id="Symbols" stroke="none" stroke-width="1" fill="none" fill-rule="evenodd" opacity="0.697451637">
        <g id="header" transform="translate(-1270.000000, -48.000000)" fill="#000000">
            <g id="Group-5">
                <g id="coffee-(1)" transform="translate(1270.000000, 48.000000)">
                    <path d="M1.48633827,11.1334063 L4.9450208,4.73671484 C4.99526177,4.64364453 5.02159598,4.53914453 5.02159598,4.43338281 L5.02159598,2.53338281 C5.02159598,1.83483594 5.58461851,1.26669141 6.27703176,1.26669141 L26.3636364,1.26669141 L26.3636364,0 L6.27703176,0 C4.89227881,0 3.76623377,1.13621484 3.76623377,2.53330859 L3.76623377,4.27180859 L0.384788454,10.526 C0.135569704,10.9857852 0.00191254058,11.5057617 0,12.0333086 L0,34.2 C0,36.2957148 1.68914113,38 3.76623377,38 L23.2250837,38 L23.2250837,36.7333086 L3.76616021,36.7333086 C2.38140726,36.7333086 1.25536222,35.5970937 1.25536222,34.2 L1.25536222,12.035832 C1.25661272,11.7217383 1.33635095,11.410168 1.48633827,11.1334063 Z" id="Path"></path>
                    <path d="M28.6158011,10.6179606 L25.2337032,4.38395981 L25.2337032,2.65116279 L23.9783445,2.65116279 L23.9783445,4.38388583 L20.5969086,10.6046456 C20.3451895,11.0673413 20.2121212,11.5912858 20.2121212,12.1195947 L20.2121212,34.8438314 C20.2121212,36.5840996 21.6200414,38 23.3506651,38 L25.8614561,38 C27.5920063,38 29,36.5841735 29,34.8438314 L29,12.1170797 C28.997499,11.5944666 28.8644307,11.0762179 28.6158011,10.6179606 Z M27.7445677,34.8438314 C27.7445677,35.8878739 26.8996685,36.7375178 25.8614561,36.7375178 L23.3506651,36.7375178 C22.3124527,36.7375178 21.4675535,35.8878739 21.4675535,34.8438314 L21.4675535,12.1195947 C21.4675535,11.8021064 21.5472915,11.4883906 21.6985289,11.2099595 L24.6054354,5.86155299 L27.5135923,11.2232005 C27.6635792,11.4984508 27.7433172,11.8089858 27.7445677,12.1195208 L27.7445677,34.8438314 Z" id="Shape" fill-rule="nonzero"></path>
                    <rect id="Rectangle" x="4.39393939" y="3.53488372" width="20.2121212" height="1"></rect>
                    <path d="M16.1111017,0 L12.5957561,0 C12.2723718,0 12.009888,0.27946798 12.009888,0.623777209 L12.009888,4.23434561 L9.71729225,9.7275764 C9.63641184,9.92034571 9.6534393,10.1436715 9.76123407,10.3207971 C9.86902885,10.4979226 10.0542024,10.6046512 10.2522152,10.6046512 L13.7675608,10.6046512 C13.9990106,10.6046512 14.2087642,10.4593249 14.3030331,10.2340984 L16.6465739,4.61988422 C16.6799422,4.54005711 16.6969697,4.45394325 16.6969697,4.36658667 L16.6969697,0.623777209 C16.6969697,0.27946798 16.4351039,0 16.1111017,0 Z M15.5252336,4.23434561 L13.3873268,9.35702364 L11.1539151,9.35702364 L13.131297,4.61988422 C13.1646653,4.54005711 13.1816928,4.45394325 13.1816928,4.36658667 L13.1816928,1.24762752 L15.5252336,1.24762752 L15.5252336,4.23434561 Z" id="Shape" fill-rule="nonzero"></path>
                    <path d="M25.0415208,32.8908316 C24.8006571,32.6332887 24.4113919,32.6332887 24.1706005,32.8908316 L21.0909091,36.1847707 L21.9618294,37.1162791 L24.6060606,34.2880942 L27.2502918,37.1162791 L28.1212121,36.1847707 L25.0415208,32.8908316 Z" id="Path"></path>
                    <path d="M26.3636364,0 C24.9097088,0 23.7272727,1.12808535 23.7272727,2.51518305 L23.7272727,32.6976744 L25.0454932,32.6976744 L25.0454932,2.51518305 C25.0454932,1.8216342 25.6366726,1.25755468 26.3637136,1.25755468 C27.0907546,1.25755468 27.6818568,1.8216342 27.6818568,2.51518305 L27.6818568,3.45838591 C27.6818568,3.63192049 27.5335599,3.77281142 27.3522824,3.77281142 C27.1710049,3.77281142 27.022708,3.63199418 27.022708,3.45838591 L27.022708,2.51518305 L25.7045648,2.51518305 L25.7045648,3.45838591 C25.7045648,4.32487984 26.4434232,5.0303661 27.3522824,5.0303661 C28.2612188,5.0303661 29,4.32487984 29,3.45838591 L29,2.51518305 C29.0000772,1.12808535 27.8176412,0 26.3636364,0 Z" id="Path"></path>
                </g>
            </g>
        </g>
    </g>
</svg>